<mxfile host="app.diagrams.net" modified="2023-08-28T01:08:16.775Z" agent="Mozilla/5.0 (Windows NT 10.0; Win64; x64; rv:109.0) Gecko/20100101 Firefox/116.0" version="21.6.7" etag="D9sENVhVpCJ5eB3KPuAX" type="github">
  <diagram name="Page-1" id="hsYCGunWgllWU9Cx7G_t">
    <mxGraphModel>
      <root>
        <mxCell id="0" />
        <mxCell id="1" parent="0" />
      </root>
    </mxGraphModel>
  </diagram>
</mxfile>
